# xmcd
#
# Track frame offsets: 
#        300
#        8768
#        22512
#        38790
#        51729
#        65214
#        89636
#        106791
#        126049
#        141816
#        160595
#        177139
#
# Disc length: 2413 seconds
#
# Revision: 11
# Processed by: cddbd v1.5.2PL0 Copyright (c) Steve Scherf et al.
# Submitted via: ExactAudioCopy v0.99pb5
#
DISCID=9909690c
DTITLE=Blues Brothers - Briefcase Full Of Blues
DYEAR=1978
DGENRE=Contemporary Blues
TTITLE0=Opening: I Can't Turn You Loose
TTITLE1=Hey Bartender
TTITLE2=Messin' With The Kid
TTITLE3=(I Got Everything I Need) Almost
TTITLE4=Rubber Biscuit
TTITLE5=Shot Gun Blues
TTITLE6=Groove Me
TTITLE7=I Don't Know
TTITLE8=Soul Man
TTITLE9="B" Movie Box Car Blues
TTITLE10=Flip, Flop and Fly
TTITLE11=Closing: I Can't Turn You Loose
EXTD=
EXTT0=
EXTT1=
EXTT2=
EXTT3=
EXTT4=
EXTT5=
EXTT6=
EXTT7=
EXTT8=
EXTT9=
EXTT10=
EXTT11=
PLAYORDER=
